<svg xmlns="http://www.w3.org/2000/svg" viewBox="0 0 323.51 323.51"><defs><style>.cls-1{fill:none;stroke:#000;stroke-miterlimit:10;stroke-width:1.7px;}</style></defs><title>Asset 1</title><g id="Layer_2" data-name="Layer 2"><g id="Layer_1-2" data-name="Layer 1"><circle class="cls-1" cx="161.76" cy="161.76" r="160.91"/><circle class="cls-1" cx="161.76" cy="161.76" r="12.92"/><path class="cls-1" d="M173.89,97.42c22.31-17.24,26.39-41.25,18-62.07C186.4,21.55,176,7.61,159,.89A160.54,160.54,0,0,0,36.77,60.43l77.74,193.91,77.08-30.9c54.7-21.93,58.52-61,47.18-89.26C226.68,104,202.18,91.49,173.89,97.42ZM64.54,46l41.34-16.57c34.49-13.83,50.05,1.58,57.4,19.92,6.36,15.85,8.3,37.79-28.37,52.5L93.57,118.44ZM180.13,200.26l-46.31,18.56L103,142.06l49.42-19.81c28.9-11.59,47.19-.17,55.67,21C216.47,164,213.38,186.92,180.13,200.26Z"/><path class="cls-1" d="M267.19,232.25,213.6,254l-8.81-21.75,53.59-21.73Z"/></g></g></svg>